<svg width="150" height="31" viewBox="0 0 150 31" fill="none" xmlns="http://www.w3.org/2000/svg">
<path d="M45.784 16.36C46.648 16.36 47.328 16.104 47.824 15.592C48.32 15.08 48.568 14.336 48.568 13.36C48.568 12.384 48.32 11.64 47.824 11.128C47.328 10.616 46.648 10.36 45.784 10.36H42.328V16.36H45.784ZM38.68 7.24H46.576C47.68 7.24 48.656 7.488 49.504 7.984C50.352 8.464 51.016 9.16 51.496 10.072C51.976 10.968 52.216 12.016 52.216 13.216C52.216 14.416 51.968 15.464 51.472 16.36C50.992 17.256 50.08 18.08 48.736 18.832L53.08 25.432H48.712L44.8 19.48H42.328V25.432H38.68V7.24ZM60.2965 25.48C59.1765 25.48 58.1765 25.232 57.2965 24.736C56.4165 24.224 55.7285 23.52 55.2325 22.624C54.7365 21.712 54.4885 20.68 54.4885 19.528C54.4885 18.36 54.7365 17.328 55.2325 16.432C55.7285 15.52 56.4165 14.808 57.2965 14.296C58.1765 13.784 59.1765 13.528 60.2965 13.528C62.6005 13.528 64.2885 14.6 65.3605 16.744C65.7285 17.448 65.9125 18.456 65.9125 19.768L65.8885 20.752H57.8965C58.0405 21.28 58.3445 21.704 58.8085 22.024C59.2885 22.328 59.7925 22.48 60.3205 22.48C60.8965 22.48 61.3605 22.384 61.7125 22.192C62.0805 21.984 62.3365 21.744 62.4805 21.472L65.4805 22.6C65.1605 23.384 64.5525 24.064 63.6565 24.64C62.7765 25.2 61.6565 25.48 60.2965 25.48ZM62.5525 18.616C62.4085 17.944 62.1445 17.424 61.7605 17.056C61.3765 16.688 60.8885 16.504 60.2965 16.504C59.6885 16.504 59.1765 16.688 58.7605 17.056C58.3445 17.424 58.0645 17.944 57.9205 18.616H62.5525ZM73.7178 22.048C74.0538 22.048 74.4058 21.952 74.7738 21.76C75.1578 21.552 75.5098 21.28 75.8298 20.944L78.1818 23.512C77.6858 24.088 77.0218 24.56 76.1898 24.928C75.3578 25.296 74.5578 25.48 73.7898 25.48C72.6218 25.48 71.5818 25.224 70.6698 24.712C69.7578 24.2 69.0458 23.496 68.5338 22.6C68.0218 21.688 67.7658 20.656 67.7658 19.504C67.7658 18.336 68.0218 17.304 68.5338 16.408C69.0458 15.496 69.7578 14.784 70.6698 14.272C71.5818 13.76 72.6218 13.504 73.7898 13.504C74.6378 13.504 75.4458 13.68 76.2138 14.032C76.9818 14.384 77.6378 14.864 78.1818 15.472L75.8298 18.016C75.5098 17.68 75.1578 17.416 74.7738 17.224C74.4058 17.032 74.0538 16.936 73.7178 16.936C72.9818 16.936 72.4138 17.16 72.0138 17.608C71.6138 18.056 71.4138 18.688 71.4138 19.504C71.4138 20.304 71.6138 20.928 72.0138 21.376C72.4138 21.824 72.9818 22.048 73.7178 22.048ZM84.0998 13.504V25.432H80.4518V13.504H84.0998ZM80.3798 9.352C80.3798 8.792 80.5558 8.336 80.9078 7.984C81.2758 7.632 81.7318 7.456 82.2758 7.456C82.8358 7.456 83.2918 7.632 83.6438 7.984C83.9958 8.336 84.1718 8.792 84.1718 9.352C84.1718 9.896 83.9958 10.352 83.6438 10.72C83.2918 11.072 82.8358 11.248 82.2758 11.248C81.7318 11.248 81.2758 11.072 80.9078 10.72C80.5558 10.352 80.3798 9.896 80.3798 9.352ZM94.7461 16.36C95.5781 16.36 96.2501 16.08 96.7621 15.52C97.2901 14.96 97.5541 14.24 97.5541 13.36C97.5541 12.48 97.2901 11.76 96.7621 11.2C96.2501 10.64 95.5781 10.36 94.7461 10.36H91.2181V16.36H94.7461ZM87.5701 7.24H94.8661C96.0981 7.24 97.1941 7.504 98.1541 8.032C99.1141 8.544 99.8581 9.264 100.386 10.192C100.93 11.12 101.202 12.176 101.202 13.36C101.202 14.544 100.93 15.6 100.386 16.528C99.8581 17.456 99.1141 18.184 98.1541 18.712C97.1941 19.224 96.0981 19.48 94.8661 19.48H91.2181V25.432H87.5701V7.24ZM107.531 7.24V25.432H103.883V7.24H107.531ZM119.158 25.624C117.414 25.624 115.862 25.232 114.502 24.448C113.142 23.648 112.078 22.544 111.31 21.136C110.558 19.728 110.182 18.128 110.182 16.336C110.182 14.544 110.558 12.944 111.31 11.536C112.078 10.128 113.134 9.032 114.478 8.248C115.838 7.448 117.382 7.048 119.11 7.048C120.342 7.048 121.502 7.288 122.59 7.768C123.694 8.232 124.662 8.896 125.494 9.76L123.166 12.328C122.75 11.688 122.166 11.176 121.414 10.792C120.678 10.408 119.902 10.216 119.086 10.216C117.47 10.216 116.19 10.768 115.246 11.872C114.302 12.96 113.83 14.448 113.83 16.336C113.83 18.224 114.302 19.72 115.246 20.824C116.206 21.912 117.502 22.456 119.134 22.456C120.014 22.456 120.774 22.272 121.414 21.904C122.07 21.52 122.598 21.048 122.998 20.488L125.494 22.912C124.63 23.808 123.686 24.488 122.662 24.952C121.638 25.416 120.47 25.64 119.158 25.624ZM136.517 15.352L143.765 25.432H139.277L134.021 18.136L131.765 20.632V25.432H128.117V7.264H131.765V15.232L138.821 7.216H143.669L136.517 15.352Z" fill="#21313C"/>
<g clip-path="url(#clip0_111_2017)">
<path fill-rule="evenodd" clip-rule="evenodd" d="M22.9101 15.4414H19.9218C19.6874 15.4414 19.5117 15.2656 19.5117 15.0898C19.2187 11.8672 20.1562 7.82422 21.9726 3.95703C22.0312 3.78125 22.1484 3.72266 22.3242 3.72266C22.4999 3.72266 22.6757 3.83984 22.7343 4.01562C22.7343 4.13281 23.6718 7.12109 23.3203 15.0312C23.3203 15.2656 23.1445 15.4414 22.9101 15.4414ZM20.2734 14.6211H22.4999C22.6757 9.81641 22.3828 6.94531 22.1484 5.48047C20.8593 8.64453 20.1562 11.9258 20.2734 14.6211Z" fill="#FF8A3D"/>
<path fill-rule="evenodd" clip-rule="evenodd" d="M21.8555 22.4141C21.0352 22.4141 20.4492 21.7695 20.4492 21.0078V15.0312C20.4492 14.7969 20.625 14.6211 20.8594 14.6211H22.9102C23.1445 14.6211 23.3203 14.7969 23.3203 15.0312V21.0078C23.3203 21.8281 22.6758 22.4141 21.8555 22.4141ZM21.2695 15.4414V21.0078C21.2695 21.3594 21.5625 21.5938 21.8555 21.5938C22.207 21.5938 22.5 21.3594 22.5 21.0078V15.4414H21.2695Z" fill="#FF8A3D"/>
<path fill-rule="evenodd" clip-rule="evenodd" d="M14.1797 11.457C12.6562 11.457 11.3672 9.69922 11.3672 7.58984C11.3672 5.48047 12.6562 3.72266 14.1797 3.72266C14.9414 3.72266 15.7031 4.13281 16.2305 4.95312C16.6992 5.65625 16.9922 6.59375 16.9922 7.58984C16.9922 8.58594 16.6992 9.52344 16.2305 10.2852C15.7031 11.0469 14.9414 11.457 14.1797 11.457ZM14.1797 4.54297C13.125 4.54297 12.1875 5.94922 12.1875 7.58984C12.1875 9.23047 13.125 10.6367 14.1797 10.6367C15.2344 10.6367 16.1719 9.23047 16.1719 7.58984C16.1719 5.94922 15.2344 4.54297 14.1797 4.54297Z" fill="#FF8A3D"/>
<path fill-rule="evenodd" clip-rule="evenodd" d="M14.1797 22.4141C13.125 22.4141 12.5391 20.6562 12.5391 18.957C12.5391 17.7266 12.6562 16.3789 12.7734 14.9727C12.8906 13.625 12.9492 12.2188 13.0078 10.8125C13.0078 10.5781 13.1836 10.4023 13.418 10.4023C13.6523 10.4023 13.8281 10.5781 13.8281 10.8125C13.7695 12.2188 13.7109 13.625 13.5938 15.0312C13.4766 16.4375 13.3594 17.7852 13.3594 18.957C13.3594 19.7188 13.4766 20.4219 13.7109 20.9492C13.8867 21.418 14.1211 21.5938 14.1797 21.5938C14.4727 21.5938 15 20.6562 15 18.957C15 17.8438 14.8828 16.6133 14.8242 15.3242C14.707 13.8594 14.5898 12.3359 14.5898 10.8125C14.5898 10.5781 14.7656 10.4023 15 10.4023C15.2344 10.4023 15.4102 10.5781 15.4102 10.8125C15.4102 12.3359 15.5273 13.8008 15.6445 15.2656C15.7031 16.5547 15.8203 17.8438 15.8203 18.957C15.8203 20.5977 15.293 22.4141 14.1797 22.4141Z" fill="#FF8A3D"/>
<path fill-rule="evenodd" clip-rule="evenodd" d="M27.7734 25.6953C27.5391 25.6953 27.3633 25.5195 27.3633 25.2852V1.32031H7.03125C6.79688 1.32031 6.62109 1.14453 6.62109 0.910156C6.62109 0.675781 6.79688 0.5 7.03125 0.5H27.7734C28.0078 0.5 28.1836 0.675781 28.1836 0.910156V25.2852C28.1836 25.5195 28.0078 25.6953 27.7734 25.6953Z" fill="#FF8A3D"/>
<path fill-rule="evenodd" clip-rule="evenodd" d="M2.22656 28.0977C1.99219 28.0977 1.81641 27.9219 1.81641 27.6875V7.58984C1.81641 7.35547 1.99219 7.17969 2.22656 7.17969C2.46094 7.17969 2.63672 7.35547 2.63672 7.58984V27.6875C2.63672 27.9219 2.46094 28.0977 2.22656 28.0977Z" fill="#FF8A3D"/>
<path fill-rule="evenodd" clip-rule="evenodd" d="M27.7734 30.5H4.6875C3.10547 30.5 1.81641 29.2109 1.81641 27.6875C1.81641 26.1055 3.10547 24.875 4.6875 24.875H27.7734C28.0078 24.875 28.1836 25.0508 28.1836 25.2852V30.0898C28.1836 30.3242 28.0078 30.5 27.7734 30.5ZM4.6875 25.6953C3.57422 25.6953 2.63672 26.5742 2.63672 27.6875C2.63672 28.7422 3.57422 29.6797 4.6875 29.6797H27.3633V25.6953H4.6875Z" fill="#FF8A3D"/>
<path fill-rule="evenodd" clip-rule="evenodd" d="M7.03125 25.6953C6.79688 25.6953 6.62109 25.5195 6.62109 25.2852V0.910156C6.62109 0.675781 6.79688 0.5 7.03125 0.5C7.26562 0.5 7.44141 0.675781 7.44141 0.910156V25.2852C7.44141 25.5195 7.26562 25.6953 7.03125 25.6953Z" fill="#FF8A3D"/>
<path fill-rule="evenodd" clip-rule="evenodd" d="M2.22656 8C1.99219 8 1.81641 7.82422 1.81641 7.58984V4.25C1.81641 2.19922 3.51562 0.5 5.56641 0.5H7.03125C7.26562 0.5 7.44141 0.675781 7.44141 0.910156C7.44141 1.14453 7.26562 1.32031 7.03125 1.32031H5.56641C3.98438 1.32031 2.63672 2.66797 2.63672 4.25V7.58984C2.63672 7.82422 2.46094 8 2.22656 8Z" fill="#FF8A3D"/>
<path fill-rule="evenodd" clip-rule="evenodd" d="M27.7734 28.0977H20.1562C19.9219 28.0977 19.7461 27.9219 19.7461 27.6875C19.7461 27.4531 19.9219 27.2773 20.1562 27.2773H27.7734C28.0078 27.2773 28.1836 27.4531 28.1836 27.6875C28.1836 27.9219 28.0078 28.0977 27.7734 28.0977Z" fill="#FF8A3D"/>
</g>
<defs>
<clipPath id="clip0_111_2017">
<rect width="30" height="30" fill="white" transform="translate(0 0.5)"/>
</clipPath>
</defs>
</svg>
