<svg xmlns="http://www.w3.org/2000/svg" xml:space="preserve" width="16px" height="16px" version="1.1" style="shape-rendering:geometricPrecision; text-rendering:geometricPrecision; image-rendering:optimizeQuality; fill-rule:evenodd; clip-rule:evenodd" viewBox="0 0 512 512" xmlns:xlink="http://www.w3.org/1999/xlink">
 <defs>
  <style type="text/css">
   
    .fil0 {fill:black}
   
  </style>
 </defs>
 <g id="Layer_x0020_1">
  <metadata id="CorelCorpID_0Corel-Layer"></metadata>
  <g id="_249155936">
   <g>
    <g>
     <g>
      <path class="fil0" d="M391 255l-51 0c-4,0 -7,-3 -7,-6 -5,-55 11,-124 42,-190 1,-3 3,-4 6,-4 3,0 6,2 7,5 0,2 16,53 10,188 0,4 -3,7 -7,7zm-45 -14l38 0c3,-82 -2,-131 -6,-156 -22,54 -34,110 -32,156z" id="id_101" style="fill: rgb(255, 138, 61);"></path>
     </g>
     <g>
      <path class="fil0" d="M373 374c-14,0 -24,-11 -24,-24l0 -102c0,-4 3,-7 7,-7l35 0c4,0 7,3 7,7l0 102c0,14 -11,24 -25,24zm-10 -119l0 95c0,6 5,10 10,10 6,0 11,-4 11,-10l0 -95 -21 0z" id="id_102" style="fill: rgb(255, 138, 61);"></path>
     </g>
     <g>
      <path class="fil0" d="M242 187c-26,0 -48,-30 -48,-66 0,-36 22,-66 48,-66 13,0 26,7 35,21 8,12 13,28 13,45 0,17 -5,33 -13,46 -9,13 -22,20 -35,20zm0 -118c-18,0 -34,24 -34,52 0,28 16,52 34,52 18,0 34,-24 34,-52 0,-28 -16,-52 -34,-52z" id="id_103" style="fill: rgb(255, 138, 61);"></path>
     </g>
     <g>
      <path class="fil0" d="M242 374c-18,0 -28,-30 -28,-59 0,-21 2,-44 4,-68 2,-23 3,-47 4,-71 0,-4 3,-7 7,-7 4,0 7,3 7,7 -1,24 -2,48 -4,72 -2,24 -4,47 -4,67 0,13 2,25 6,34 3,8 7,11 8,11 5,0 14,-16 14,-45 0,-19 -2,-40 -3,-62 -2,-25 -4,-51 -4,-77 0,-4 3,-7 7,-7 4,0 7,3 7,7 0,26 2,51 4,76 1,22 3,44 3,63 0,28 -9,59 -28,59z" id="id_104" style="fill: rgb(255, 138, 61);"></path>
     </g>
    </g>
    <g>
     <path class="fil0" d="M474 430c-4,0 -7,-3 -7,-7l0 -409 -347 0c-4,0 -7,-3 -7,-7 0,-4 3,-7 7,-7l354 0c4,0 7,3 7,7l0 416c0,4 -3,7 -7,7z" id="id_105" style="fill: rgb(255, 138, 61);"></path>
    </g>
    <g>
     <path class="fil0" d="M38 471c-4,0 -7,-3 -7,-7l0 -343c0,-4 3,-7 7,-7 4,0 7,3 7,7l0 343c0,4 -3,7 -7,7z" id="id_106" style="fill: rgb(255, 138, 61);"></path>
    </g>
    <g>
     <path class="fil0" d="M474 512l-394 0c-27,0 -49,-22 -49,-48 0,-27 22,-48 49,-48l394 0c4,0 7,3 7,7l0 82c0,4 -3,7 -7,7zm-394 -82c-19,0 -35,15 -35,34 0,18 16,34 35,34l387 0 0 -68 -387 0z" id="id_107" style="fill: rgb(255, 138, 61);"></path>
    </g>
    <g>
     <path class="fil0" d="M120 430c-4,0 -7,-3 -7,-7l0 -416c0,-4 3,-7 7,-7 4,0 7,3 7,7l0 416c0,4 -3,7 -7,7z" id="id_108" style="fill: rgb(255, 138, 61);"></path>
    </g>
    <g>
     <path class="fil0" d="M38 128c-4,0 -7,-3 -7,-7l0 -57c0,-35 29,-64 64,-64l25 0c4,0 7,3 7,7 0,4 -3,7 -7,7l-25 0c-27,0 -50,23 -50,50l0 57c0,4 -3,7 -7,7z" id="id_109" style="fill: rgb(255, 138, 61);"></path>
    </g>
    <g>
     <path class="fil0" d="M474 471l-130 0c-4,0 -7,-3 -7,-7 0,-4 3,-7 7,-7l130 0c4,0 7,3 7,7 0,4 -3,7 -7,7z" id="id_110" style="fill: rgb(255, 138, 61);"></path>
    </g>
   </g>
  </g>
 </g>
</svg>