<svg width="30" height="31" viewBox="0 0 30 31" fill="none" xmlns="http://www.w3.org/2000/svg">
<g clip-path="url(#clip0_111_2043)">
<path fill-rule="evenodd" clip-rule="evenodd" d="M22.9101 15.4414H19.9218C19.6874 15.4414 19.5117 15.2656 19.5117 15.0898C19.2187 11.8672 20.1562 7.82422 21.9726 3.95703C22.0312 3.78125 22.1484 3.72266 22.3242 3.72266C22.4999 3.72266 22.6757 3.83984 22.7343 4.01562C22.7343 4.13281 23.6718 7.12109 23.3203 15.0312C23.3203 15.2656 23.1445 15.4414 22.9101 15.4414ZM20.2734 14.6211H22.4999C22.6757 9.81641 22.3828 6.94531 22.1484 5.48047C20.8593 8.64453 20.1562 11.9258 20.2734 14.6211Z" fill="#FF8A3D"/>
<path fill-rule="evenodd" clip-rule="evenodd" d="M21.8555 22.4141C21.0352 22.4141 20.4492 21.7695 20.4492 21.0078V15.0312C20.4492 14.7969 20.625 14.6211 20.8594 14.6211H22.9102C23.1445 14.6211 23.3203 14.7969 23.3203 15.0312V21.0078C23.3203 21.8281 22.6758 22.4141 21.8555 22.4141ZM21.2695 15.4414V21.0078C21.2695 21.3594 21.5625 21.5938 21.8555 21.5938C22.207 21.5938 22.5 21.3594 22.5 21.0078V15.4414H21.2695Z" fill="#FF8A3D"/>
<path fill-rule="evenodd" clip-rule="evenodd" d="M14.1797 11.457C12.6562 11.457 11.3672 9.69922 11.3672 7.58984C11.3672 5.48047 12.6562 3.72266 14.1797 3.72266C14.9414 3.72266 15.7031 4.13281 16.2305 4.95312C16.6992 5.65625 16.9922 6.59375 16.9922 7.58984C16.9922 8.58594 16.6992 9.52344 16.2305 10.2852C15.7031 11.0469 14.9414 11.457 14.1797 11.457ZM14.1797 4.54297C13.125 4.54297 12.1875 5.94922 12.1875 7.58984C12.1875 9.23047 13.125 10.6367 14.1797 10.6367C15.2344 10.6367 16.1719 9.23047 16.1719 7.58984C16.1719 5.94922 15.2344 4.54297 14.1797 4.54297Z" fill="#FF8A3D"/>
<path fill-rule="evenodd" clip-rule="evenodd" d="M14.1797 22.4141C13.125 22.4141 12.5391 20.6562 12.5391 18.957C12.5391 17.7266 12.6562 16.3789 12.7734 14.9727C12.8906 13.625 12.9492 12.2188 13.0078 10.8125C13.0078 10.5781 13.1836 10.4023 13.418 10.4023C13.6523 10.4023 13.8281 10.5781 13.8281 10.8125C13.7695 12.2188 13.7109 13.625 13.5938 15.0312C13.4766 16.4375 13.3594 17.7852 13.3594 18.957C13.3594 19.7188 13.4766 20.4219 13.7109 20.9492C13.8867 21.418 14.1211 21.5938 14.1797 21.5938C14.4727 21.5938 15 20.6562 15 18.957C15 17.8438 14.8828 16.6133 14.8242 15.3242C14.707 13.8594 14.5898 12.3359 14.5898 10.8125C14.5898 10.5781 14.7656 10.4023 15 10.4023C15.2344 10.4023 15.4102 10.5781 15.4102 10.8125C15.4102 12.3359 15.5273 13.8008 15.6445 15.2656C15.7031 16.5547 15.8203 17.8438 15.8203 18.957C15.8203 20.5977 15.293 22.4141 14.1797 22.4141Z" fill="#FF8A3D"/>
<path fill-rule="evenodd" clip-rule="evenodd" d="M27.7734 25.6953C27.5391 25.6953 27.3633 25.5195 27.3633 25.2852V1.32031H7.03125C6.79688 1.32031 6.62109 1.14453 6.62109 0.910156C6.62109 0.675781 6.79688 0.5 7.03125 0.5H27.7734C28.0078 0.5 28.1836 0.675781 28.1836 0.910156V25.2852C28.1836 25.5195 28.0078 25.6953 27.7734 25.6953Z" fill="#FF8A3D"/>
<path fill-rule="evenodd" clip-rule="evenodd" d="M2.22656 28.0977C1.99219 28.0977 1.81641 27.9219 1.81641 27.6875V7.58984C1.81641 7.35547 1.99219 7.17969 2.22656 7.17969C2.46094 7.17969 2.63672 7.35547 2.63672 7.58984V27.6875C2.63672 27.9219 2.46094 28.0977 2.22656 28.0977Z" fill="#FF8A3D"/>
<path fill-rule="evenodd" clip-rule="evenodd" d="M27.7734 30.5H4.6875C3.10547 30.5 1.81641 29.2109 1.81641 27.6875C1.81641 26.1055 3.10547 24.875 4.6875 24.875H27.7734C28.0078 24.875 28.1836 25.0508 28.1836 25.2852V30.0898C28.1836 30.3242 28.0078 30.5 27.7734 30.5ZM4.6875 25.6953C3.57422 25.6953 2.63672 26.5742 2.63672 27.6875C2.63672 28.7422 3.57422 29.6797 4.6875 29.6797H27.3633V25.6953H4.6875Z" fill="#FF8A3D"/>
<path fill-rule="evenodd" clip-rule="evenodd" d="M7.03125 25.6953C6.79688 25.6953 6.62109 25.5195 6.62109 25.2852V0.910156C6.62109 0.675781 6.79688 0.5 7.03125 0.5C7.26562 0.5 7.44141 0.675781 7.44141 0.910156V25.2852C7.44141 25.5195 7.26562 25.6953 7.03125 25.6953Z" fill="#FF8A3D"/>
<path fill-rule="evenodd" clip-rule="evenodd" d="M2.22656 8C1.99219 8 1.81641 7.82422 1.81641 7.58984V4.25C1.81641 2.19922 3.51562 0.5 5.56641 0.5H7.03125C7.26562 0.5 7.44141 0.675781 7.44141 0.910156C7.44141 1.14453 7.26562 1.32031 7.03125 1.32031H5.56641C3.98438 1.32031 2.63672 2.66797 2.63672 4.25V7.58984C2.63672 7.82422 2.46094 8 2.22656 8Z" fill="#FF8A3D"/>
<path fill-rule="evenodd" clip-rule="evenodd" d="M27.7734 28.0977H20.1562C19.9219 28.0977 19.7461 27.9219 19.7461 27.6875C19.7461 27.4531 19.9219 27.2773 20.1562 27.2773H27.7734C28.0078 27.2773 28.1836 27.4531 28.1836 27.6875C28.1836 27.9219 28.0078 28.0977 27.7734 28.0977Z" fill="#FF8A3D"/>
</g>
<defs>
<clipPath id="clip0_111_2043">
<rect width="30" height="30" fill="white" transform="translate(0 0.5)"/>
</clipPath>
</defs>
</svg>
